<svg xmlns="http://www.w3.org/2000/svg" viewBox="0 0 1270.48 174.82"><defs><style>.cls-1{fill:#101820;}.cls-2{fill:#ffd100;}</style></defs><g id="Camada_2" data-name="Camada 2"><g id="Camada_1-2" data-name="Camada 1"><g id="Logotipo_primário_preferencial" data-name="Logotipo primário preferencial"><path class="cls-1" d="M439.89,136.93q-.25,13.44-7.07,21.82A39.05,39.05,0,0,1,414.94,171a68.63,68.63,0,0,1-22.79,3.83q-12.93,0-21.95-2.73a129.92,129.92,0,0,1-17.62-6.86V141.5c4.17,2.53,8.23,4.82,12.23,6.82A61.33,61.33,0,0,0,377.4,153a59.41,59.41,0,0,0,14.75,1.7c6.9,0,12.3-1.47,16.19-4.33s5.9-6.47,5.9-10.8a10.69,10.69,0,0,0-3.73-8.62,33.09,33.09,0,0,0-9.46-5.3q-5.81-2.15-12-4.3c-4.33-1.13-8.66-2.43-13-4a46,46,0,0,1-11.89-6.23A29,29,0,0,1,355.58,101c-2.16-4.17-3.23-9.26-3.23-15.36,0-6.73,1.37-12.42,4.06-17.15A34.39,34.39,0,0,1,367.11,57a46.32,46.32,0,0,1,14.62-6.5,63.7,63.7,0,0,1,15.72-2c8.46.17,15.39,1.2,20.72,3.13a119.43,119.43,0,0,1,15.72,6.93l.23,21.58q-8.64-4.54-16.28-7.89a44.23,44.23,0,0,0-17.76-3.36q-9.34,0-15.59,3.46t-6.23,10.19c0,3.87,1.14,6.9,3.47,9.13a24,24,0,0,0,9.13,5.26c3.73,1.3,7.79,2.57,12.09,3.87,4,1.26,8.16,2.59,12.49,3.93a44.73,44.73,0,0,1,12,5.89,30,30,0,0,1,9,10.06C438.72,124.77,439.89,130.2,439.89,136.93Z"/><path class="cls-1" d="M516.82,173.62a75.65,75.65,0,0,1-21.58-3.12,53,53,0,0,1-19.07-10.19,49,49,0,0,1-13.55-18.95q-5-11.87-5-29.61,0-18.24,4.8-30.46t13.19-19.55a50,50,0,0,1,19.07-10.43,77.72,77.72,0,0,1,21.94-3.12A104,104,0,0,1,535.77,50a80.52,80.52,0,0,1,17.74,5.4V77.93a102,102,0,0,0-16.3-5.64,70.48,70.48,0,0,0-17-2q-18.7,0-28.18,9.36t-9.47,30.22q0,21.58,9,31.53t29.38,9.95A65.65,65.65,0,0,0,538.17,149a96.53,96.53,0,0,0,15.58-5.64v22.54a83.09,83.09,0,0,1-17.5,5.76A94.22,94.22,0,0,1,516.82,173.62Z"/><path class="cls-1" d="M680.81,96.63v74.58H655.63V99.76c0-9.76-2.34-17.19-7-22.32s-11.49-7.66-20.61-7.66A50.25,50.25,0,0,0,613.52,72a67.83,67.83,0,0,0-13.79,5.73l-.23,93.53h-25V0h25.18V58a87.89,87.89,0,0,1,13.33-5.86,66.83,66.83,0,0,1,22.18-4c9.43,0,17.52,1.63,24.22,4.89a35.15,35.15,0,0,1,15.72,15.59Q680.82,79.38,680.81,96.63Z"/><path class="cls-1" d="M762.13,174.82q-16.54,0-28.42-5.4a40.21,40.21,0,0,1-18.34-16.19q-6.48-10.78-6.48-26.86V50.83h25.18v72q0,15.35,6.84,22.66t21.22,7.31q14.39,0,21.22-7.31t6.84-22.66V50.83h24.22v75.54q0,24-13.79,36.22T762.13,174.82ZM731.43,24.45h0A10.55,10.55,0,0,1,742,13.9h3.12a10.55,10.55,0,0,1,10.55,10.55h0A10.55,10.55,0,0,1,745.1,35H742A10.56,10.56,0,0,1,731.43,24.45Zm39.33,0h0A10.55,10.55,0,0,1,781.32,13.9h2.87a10.55,10.55,0,0,1,10.55,10.55h0A10.55,10.55,0,0,1,784.19,35h-2.87A10.56,10.56,0,0,1,770.76,24.45Z"/><path class="cls-1" d="M888.71,174.34q-16.32,0-25.78-8.64t-9.48-25.42V71.69H834V50.83h19.42V17.25h25.91V50.83h29.25V71.69H879.36v63.56q0,8.4,3,12.59T893.51,152a31.75,31.75,0,0,0,8.15-1.08,27.44,27.44,0,0,0,7-2.75v22.3a41.73,41.73,0,0,1-9.71,2.88A58.37,58.37,0,0,1,888.71,174.34Z"/><polygon class="cls-1" points="1019.49 75.06 958.24 153.73 1019.49 153.73 1019.49 174.82 928.12 174.82 928.12 153.73 991.68 74.36 929.56 74.36 929.56 54.44 1019.49 54.44 1019.49 75.06"/><path class="cls-1" d="M1110.52,151.55A75.36,75.36,0,0,1,1095.3,153q-18.18,0-27.58-10.43c-5.46-6.09-8.56-14.72-9.23-25.78H1143q.26-20.64-5.16-36.11t-17.39-24.08q-12-8.64-31.41-8.63-26.38,0-41.13,16.19t-14.73,47.6c0,13.59,2.33,25.08,7.06,34.54a48.11,48.11,0,0,0,20.16,21.32q13,7.2,30.81,7.19a112.57,112.57,0,0,0,23.75-2.26,106.48,106.48,0,0,0,19-5.86V143.39a110.83,110.83,0,0,1-10.33,4.43A81.26,81.26,0,0,1,1110.52,151.55ZM1061.86,86c2.3-6.33,5.69-10.79,10.19-13.42s9.89-4,16.29-4q14.88,0,21.85,8.5c3.83,4.73,6.26,11.72,7.23,21h-58.29A53.89,53.89,0,0,1,1061.86,86Z"/><path class="cls-1" d="M1165.43,60.66a98.47,98.47,0,0,1,11.87-4.91,131.94,131.94,0,0,1,14-4q7.44-1.68,15.11-2.64a119.83,119.83,0,0,1,14.87-1q17,0,27.82,4.68a32.2,32.2,0,0,1,16.07,14.39q5.27,9.7,5.28,24.34v79.62h-25.19V95a38.44,38.44,0,0,0-1.07-9,21,21,0,0,0-4.08-8.15,20,20,0,0,0-8.64-5.88q-5.64-2.16-14.74-2.16a80.9,80.9,0,0,0-26.15,4.56v96.89h-25.18Z"/><polygon class="cls-2" points="154.32 140.43 104.29 174.82 50.03 174.82 0 140.43 77.16 87.41 154.32 140.43"/><polygon class="cls-2" points="154.32 34.38 77.16 87.41 0 34.38 50.03 0 104.29 0 154.32 34.38"/><polygon class="cls-2" points="308.65 140.43 258.62 174.82 204.35 174.82 154.32 140.43 231.49 87.41 308.65 140.43"/><polygon class="cls-2" points="308.65 34.38 231.49 87.41 154.32 34.38 204.35 0 258.62 0 308.65 34.38"/></g></g></g></svg>