<svg xmlns="http://www.w3.org/2000/svg" viewBox="0 0 918.12 174.82"><defs><style>.cls-1{fill:#ffd100;}</style></defs><g id="Camada_2" data-name="Camada 2"><g id="Camada_1-2" data-name="Camada 1"><g id="Marca-nominativa-preferencial"><path class="cls-1" d="M87.54,136.93q-.26,13.44-7.07,21.82A39.05,39.05,0,0,1,62.59,171a68.88,68.88,0,0,1-22.78,3.83q-12.95,0-22-2.73A129.53,129.53,0,0,1,.23,165.21V141.49c4.17,2.54,8.23,4.84,12.23,6.83A61.33,61.33,0,0,0,25.05,153a59.45,59.45,0,0,0,14.76,1.69c6.89,0,12.29-1.46,16.18-4.33s5.9-6.46,5.9-10.79a10.69,10.69,0,0,0-3.73-8.62,32.85,32.85,0,0,0-9.46-5.3q-5.79-2.15-12-4.3c-4.33-1.13-8.66-2.43-13-4a46,46,0,0,1-11.89-6.23A29,29,0,0,1,3.23,101C1.07,96.79,0,91.7,0,85.6c0-6.73,1.37-12.42,4.07-17.15A34.39,34.39,0,0,1,14.76,57a46.62,46.62,0,0,1,14.62-6.49,63.7,63.7,0,0,1,15.72-2c8.46.17,15.39,1.2,20.72,3.13a119.43,119.43,0,0,1,15.72,6.93l.23,21.58q-8.64-4.54-16.28-7.89a44.23,44.23,0,0,0-17.76-3.37c-6.23,0-11.42,1.17-15.59,3.47S25.91,78,25.91,82.47c0,3.87,1.14,6.9,3.47,9.13a24.09,24.09,0,0,0,9.13,5.26c3.73,1.3,7.79,2.57,12.09,3.87,4,1.26,8.16,2.59,12.49,3.93a44.59,44.59,0,0,1,12,5.89,30,30,0,0,1,9,10.06c2.3,4.16,3.47,9.59,3.47,16.32"/><path class="cls-1" d="M164.47,173.62a75.65,75.65,0,0,1-21.58-3.12,53,53,0,0,1-19.07-10.19,48.89,48.89,0,0,1-13.55-18.95q-5-11.87-5-29.61,0-18.24,4.8-30.47t13.19-19.54a50,50,0,0,1,19.07-10.43,77.72,77.72,0,0,1,21.94-3.12A104,104,0,0,1,183.42,50a80.52,80.52,0,0,1,17.74,5.4V77.93a101.06,101.06,0,0,0-16.3-5.64,70.48,70.48,0,0,0-17-2q-18.71,0-28.18,9.36t-9.47,30.22q0,21.58,9,31.53t29.38,9.95A65.16,65.16,0,0,0,185.81,149a95.81,95.81,0,0,0,15.6-5.63v22.54a83.36,83.36,0,0,1-17.51,5.76,94.84,94.84,0,0,1-19.43,1.92"/><path class="cls-1" d="M328.46,96.63V171.2H303.27V99.76q0-14.64-7-22.32t-20.62-7.66A50.23,50.23,0,0,0,261.17,72a68.37,68.37,0,0,0-13.79,5.72l-.23,93.53h-25V0h25.18V58a87.89,87.89,0,0,1,13.33-5.86,66.55,66.55,0,0,1,22.18-4c9.43,0,17.52,1.64,24.22,4.9a35.15,35.15,0,0,1,15.72,15.59q5.64,10.69,5.63,27.95"/><path class="cls-1" d="M418.42,24.44h0A10.55,10.55,0,0,1,429,13.89h2.87a10.56,10.56,0,0,1,0,21.11H429a10.55,10.55,0,0,1-10.55-10.56m-39.34,0h0a10.56,10.56,0,0,1,10.55-10.55h3.12a10.56,10.56,0,1,1,0,21.11h-3.12a10.56,10.56,0,0,1-10.55-10.56m30.7,150.38q-16.54,0-28.42-5.4A40.28,40.28,0,0,1,363,153.23q-6.47-10.78-6.47-26.86V50.83h25.18v71.94q0,15.36,6.84,22.67t21.22,7.31q14.39,0,21.22-7.31t6.84-22.67V50.83h24.22v75.54q0,24-13.79,36.21t-38.49,12.24"/><path class="cls-1" d="M536.36,174.33q-16.32,0-25.79-8.63t-9.47-25.42V71.69H481.68V50.83H501.1V17.25H527V50.83h29.26V71.69H527v63.56q0,8.38,3,12.59T541.15,152a31.77,31.77,0,0,0,8.16-1.08,28,28,0,0,0,7-2.76V170.5a41.73,41.73,0,0,1-9.71,2.88,59.2,59.2,0,0,1-10.19,1"/><polygon class="cls-1" points="577.21 54.44 577.21 74.36 639.33 74.36 575.78 153.73 575.78 174.82 667.14 174.82 667.14 153.73 605.88 153.73 667.14 75.06 667.14 54.44 577.21 54.44"/><path class="cls-1" d="M709.51,86q3.45-9.5,10.19-13.43c4.46-2.66,9.89-4,16.29-4q14.88,0,21.85,8.49c3.83,4.74,6.26,11.73,7.23,21H706.78A53.35,53.35,0,0,1,709.51,86m48.66,65.58A75.38,75.38,0,0,1,743,153q-18.18,0-27.58-10.42c-5.46-6.1-8.56-14.72-9.23-25.78h84.54q.26-20.64-5.16-36.11T768.13,56.59q-12-8.64-31.41-8.62-26.38,0-41.14,16.18t-14.72,47.6c0,13.59,2.33,25.08,7.06,34.54a48.14,48.14,0,0,0,20.15,21.32q13,7.2,30.81,7.19a112.6,112.6,0,0,0,23.76-2.26,106.47,106.47,0,0,0,19-5.87V143.39a110.83,110.83,0,0,1-10.33,4.43,82.3,82.3,0,0,1-13.09,3.73"/><path class="cls-1" d="M813.08,60.66A97.8,97.8,0,0,1,825,55.75a131.94,131.94,0,0,1,14-4q7.42-1.68,15.11-2.64a119.83,119.83,0,0,1,14.87-1q17,0,27.82,4.68a32.2,32.2,0,0,1,16.07,14.39q5.26,9.7,5.27,24.34v79.62H892.94V95a37.92,37.92,0,0,0-1.08-9,20.73,20.73,0,0,0-4.07-8.15,20,20,0,0,0-8.64-5.88q-5.64-2.16-14.75-2.16A77,77,0,0,0,851.09,71a78.41,78.41,0,0,0-12.83,3.36v96.89H813.08Z"/></g></g></g></svg>