<svg xmlns="http://www.w3.org/2000/svg" viewBox="0 0 918.12 393.34"><g id="Camada_2" data-name="Camada 2"><g id="Camada_1-2" data-name="Camada 1"><g id="Assinatura-vertical-alternativa-3-positiva"><path d="M87.54,355.45q-.26,13.44-7.07,21.82A39.15,39.15,0,0,1,62.59,389.5a68.87,68.87,0,0,1-22.78,3.82c-8.63,0-16-.89-22-2.73A129.53,129.53,0,0,1,.23,383.73V360c4.17,2.53,8.23,4.83,12.23,6.83a61.89,61.89,0,0,0,12.59,4.66,59.43,59.43,0,0,0,14.76,1.7c6.89,0,12.29-1.47,16.18-4.33s5.9-6.47,5.9-10.8a10.69,10.69,0,0,0-3.73-8.62,33.09,33.09,0,0,0-9.46-5.3q-5.79-2.15-12-4.3c-4.33-1.13-8.66-2.43-13-4a45.68,45.68,0,0,1-11.89-6.23,29,29,0,0,1-8.63-10.19C1.07,315.32,0,310.22,0,304.13,0,297.4,1.37,291.7,4.07,287a34.26,34.26,0,0,1,10.69-11.49A46.17,46.17,0,0,1,29.38,269a63.25,63.25,0,0,1,15.72-2c8.46.17,15.39,1.2,20.72,3.13A119.43,119.43,0,0,1,81.54,277l.23,21.59q-8.64-4.55-16.28-7.9a44.23,44.23,0,0,0-17.76-3.37c-6.23,0-11.42,1.17-15.59,3.47s-6.23,5.73-6.23,10.19c0,3.87,1.14,6.9,3.47,9.13a24,24,0,0,0,9.13,5.26c3.73,1.3,7.79,2.57,12.09,3.87,4,1.26,8.16,2.6,12.49,3.93a44.59,44.59,0,0,1,12,5.89,30,30,0,0,1,9,10.06c2.3,4.17,3.47,9.6,3.47,16.32"/><path d="M164.47,392.14A75.65,75.65,0,0,1,142.89,389a53,53,0,0,1-19.07-10.19,48.89,48.89,0,0,1-13.55-18.95q-5-11.86-5-29.61,0-18.22,4.8-30.46t13.19-19.55a50,50,0,0,1,19.07-10.43,77.72,77.72,0,0,1,21.94-3.12,104,104,0,0,1,19.19,1.8,80.52,80.52,0,0,1,17.74,5.4v22.54a101,101,0,0,0-16.3-5.63,70,70,0,0,0-17-2q-18.71,0-28.18,9.35t-9.47,30.22q0,21.58,9,31.53t29.38,9.95a65.57,65.57,0,0,0,17.26-2.27,96.77,96.77,0,0,0,15.6-5.64v22.55a83.92,83.92,0,0,1-17.51,5.75,94.15,94.15,0,0,1-19.43,1.92"/><path d="M328.46,315.15v74.58H303.27V318.28q0-14.64-7-22.31t-20.62-7.67a50.23,50.23,0,0,0-14.52,2.17,67.83,67.83,0,0,0-13.79,5.73l-.23,93.53h-25V218.52h25.18v58a88.9,88.9,0,0,1,13.33-5.86,66.78,66.78,0,0,1,22.18-4c9.43,0,17.52,1.63,24.22,4.89a35.15,35.15,0,0,1,15.72,15.59q5.64,10.69,5.63,27.95"/><path d="M418.42,243h0A10.55,10.55,0,0,1,429,232.42h2.87a10.55,10.55,0,0,1,0,21.1H429A10.55,10.55,0,0,1,418.42,243m-39.34,0h0a10.55,10.55,0,0,1,10.55-10.55h3.12a10.55,10.55,0,1,1,0,21.1h-3.12A10.55,10.55,0,0,1,379.08,243m30.7,150.37q-16.54,0-28.42-5.4A40.28,40.28,0,0,1,363,371.75q-6.47-10.78-6.47-26.86V269.35h25.18V341.3q0,15.34,6.84,22.66t21.22,7.32q14.39,0,21.22-7.32t6.84-22.66V269.35h24.22v75.54q0,24-13.79,36.22t-38.49,12.23"/><path d="M536.36,392.86q-16.32,0-25.79-8.64T501.1,358.8V290.21H481.68V269.35H501.1V235.77H527v33.58h29.26v20.86H527v63.56q0,8.4,3,12.59t11.15,4.2a32.22,32.22,0,0,0,8.16-1.08,28.36,28.36,0,0,0,7-2.76V389a41.73,41.73,0,0,1-9.71,2.88,58.28,58.28,0,0,1-10.19,1"/><polygon points="577.21 272.96 577.21 292.88 639.33 292.88 575.78 372.26 575.78 393.34 667.14 393.34 667.14 372.26 605.88 372.26 667.14 293.58 667.14 272.96 577.21 272.96"/><path d="M709.51,304.49c2.3-6.33,5.69-10.79,10.19-13.42s9.89-4,16.29-4q14.88,0,21.85,8.5c3.83,4.73,6.26,11.72,7.23,21H706.78a53.47,53.47,0,0,1,2.73-12.09m48.66,65.59A76.11,76.11,0,0,1,743,371.51q-18.18,0-27.58-10.43c-5.46-6.09-8.56-14.72-9.23-25.78h84.54q.26-20.64-5.16-36.11t-17.39-24.08q-12-8.64-31.41-8.62-26.38,0-41.14,16.18t-14.72,47.6c0,13.59,2.33,25.08,7.06,34.54a48.14,48.14,0,0,0,20.15,21.32q13,7.2,30.81,7.2a112.57,112.57,0,0,0,23.76-2.27,106.48,106.48,0,0,0,19-5.86V361.91a110.66,110.66,0,0,1-10.33,4.44,83.36,83.36,0,0,1-13.09,3.73"/><path d="M813.08,279.18A99.43,99.43,0,0,1,825,274.27a131.94,131.94,0,0,1,14-4q7.42-1.68,15.11-2.64a119.83,119.83,0,0,1,14.87-1q17,0,27.82,4.68a32.25,32.25,0,0,1,16.07,14.39q5.26,9.72,5.27,24.34v79.62H892.94V313.47a37.84,37.84,0,0,0-1.08-9,20.77,20.77,0,0,0-4.07-8.16,20,20,0,0,0-8.64-5.88q-5.64-2.15-14.75-2.15a76,76,0,0,0-13.31,1.2,78.41,78.41,0,0,0-12.83,3.35v96.89H813.08Z"/><polygon points="304.74 140.43 354.77 174.82 409.03 174.82 459.06 140.43 381.9 87.41 304.74 140.43"/><polygon points="354.77 0 304.74 34.38 381.9 87.41 459.06 34.38 409.03 0 354.77 0"/><polygon points="459.06 140.43 509.1 174.82 563.35 174.82 613.38 140.43 536.22 87.41 459.06 140.43"/><polygon points="509.1 0 459.06 34.38 536.22 87.41 613.39 34.38 563.35 0 509.1 0"/></g></g></g></svg>